<svg version="1.1" id="Layer_1" xmlns="http://www.w3.org/2000/svg" xmlns:xlink="http://www.w3.org/1999/xlink" x="0px" y="0px"
	 width="100%" viewBox="0 0 200 200" enable-background="new 0 0 200 200" xml:space="preserve">
<path fill="#FEFEFE" opacity="1.000000" stroke="none" 
	d="
M1.000000,33.000000 
	C1.000000,22.339209 1.000000,11.678416 0.999999,1.013218 
	C67.624077,1.008812 134.248154,1.008812 200.936111,1.008812 
	C200.936111,67.587303 200.936111,134.174683 200.936111,200.881042 
	C134.449539,200.881042 67.898811,200.881042 1.000000,200.881042 
	C1.000000,146.979599 1.000000,92.958458 1.355280,38.556244 
	C4.731387,44.949337 7.877032,51.671650 10.721626,58.519024 
	C12.196178,62.068501 14.300053,62.950649 17.759993,61.499378 
	C24.655699,58.606976 31.595745,55.820324 38.516136,52.986721 
	C42.140896,51.502541 42.409969,48.902172 41.040695,45.653412 
	C38.330730,39.223713 35.582294,32.806931 33.050297,26.306698 
	C31.424881,22.133865 28.936853,21.171932 24.861048,22.957905 
	C16.958040,26.420918 8.959156,29.665127 1.000000,33.000000 
M151.856018,26.842009 
	C151.856018,26.842009 151.833405,26.712473 151.249969,26.829603 
	C150.817688,27.210409 150.385406,27.591215 149.991379,28.005630 
	C149.991379,28.005630 149.976517,27.957169 149.322754,28.065090 
	C148.110321,29.001547 146.897873,29.938002 145.259155,30.923824 
	C145.259155,30.923824 145.007843,31.271679 144.467316,31.429035 
	C143.939545,31.938465 143.411789,32.447895 142.325607,33.112103 
	C142.223862,33.276283 142.122101,33.440460 141.478745,33.815170 
	C140.312881,34.873814 139.147034,35.932457 137.355469,37.230000 
	C109.310883,62.927986 96.870514,94.856934 100.281593,132.614502 
	C101.796608,149.384384 106.946732,165.222260 116.570427,179.171677 
	C114.830757,170.494370 112.513313,162.020325 110.802795,153.425491 
	C106.962273,134.127914 108.098068,114.973938 113.628899,96.134674 
	C122.512383,65.875473 140.267548,41.979160 166.665771,24.008022 
	C167.204178,23.709379 167.742569,23.410734 168.701660,23.093086 
	C168.701660,23.093086 168.991592,22.787704 169.669876,22.657555 
	C175.340134,19.591373 181.010376,16.525192 186.680634,13.459011 
	C186.585464,13.092978 186.490295,12.726944 186.395126,12.360910 
	C181.931519,13.613677 177.467896,14.866445 172.349976,16.096533 
	C171.224289,16.721178 170.098602,17.345823 168.242599,17.976297 
	C165.736404,19.227112 163.230194,20.477926 160.841644,21.785583 
	C160.841644,21.785583 160.793594,21.664080 160.133270,21.766773 
	C159.017426,22.449564 157.901596,23.132357 156.881866,23.858057 
	C156.881866,23.858057 156.868240,23.753696 156.220566,23.865383 
	C155.144943,24.574913 154.069321,25.284441 153.000000,26.000000 
	C153.000000,26.000000 152.994797,25.993429 152.452057,26.039762 
	C152.212006,26.292734 151.971939,26.545706 151.856018,26.842009 
M82.990295,42.986763 
	C82.990295,42.986763 82.854904,42.875820 83.552841,42.866840 
	C83.458984,41.554249 83.365135,40.241653 83.052841,38.490116 
	C83.052841,38.490116 82.999199,38.002758 83.062660,37.217747 
	C82.052277,35.142384 81.041885,33.067020 79.992661,30.992504 
	C79.992661,30.992504 80.016281,30.961569 80.062088,30.177582 
	C79.366226,28.789133 78.670364,27.400684 77.757835,25.743860 
	C77.757835,25.743860 77.705856,25.402882 77.869576,24.567568 
	C77.126877,23.453394 76.384178,22.339220 74.882378,21.041021 
	C73.591545,21.032059 72.300713,21.023098 70.603798,20.500885 
	C66.740059,22.345716 62.876328,24.190548 58.743137,26.247532 
	C58.743137,26.247532 58.401859,26.281277 57.668564,26.103138 
	C56.758236,26.662348 55.847908,27.221560 54.681553,28.047745 
	C54.681553,28.047745 54.332199,28.169292 53.675804,28.336676 
	C53.489578,28.943613 53.303356,29.550550 53.172874,30.573021 
	C53.172874,30.573021 53.111450,30.987755 52.633816,31.288641 
	C53.055820,31.875162 53.477825,32.461685 53.982548,33.052563 
	C53.982548,33.052563 53.929253,33.115982 53.895073,33.888988 
	C54.844494,35.948673 55.793915,38.008358 56.953209,40.500828 
	C56.953209,40.500828 57.013649,40.978012 56.950008,41.788872 
	C58.095440,44.627541 56.479328,48.851933 61.521259,50.258862 
	C62.014526,50.497562 62.507793,50.736263 63.484306,51.532681 
	C69.381660,51.821350 73.776550,48.647160 78.470757,44.997353 
	C78.470757,44.997353 78.934128,44.959831 79.703354,45.051613 
	C80.760071,44.319859 81.816795,43.588100 82.990295,42.986763 
M39.448112,86.132973 
	C39.981750,87.346695 40.547344,88.547508 41.043564,89.776344 
	C43.337044,95.455910 43.753704,95.660248 49.414223,93.375641 
	C53.409725,91.763046 57.322502,89.929947 61.370556,88.467514 
	C65.305298,87.046013 65.872467,84.623810 64.320152,81.089584 
	C62.455006,76.843155 60.609509,72.581459 58.964050,68.247200 
	C57.571419,64.578911 55.254963,63.981899 51.905857,65.461128 
	C48.418022,67.001625 44.887486,68.446449 41.363907,69.904816 
	C34.152664,72.889442 34.149426,72.881653 36.949894,79.879036 
	C37.688709,81.725082 38.427654,83.571075 39.448112,86.132973 
M76.031570,108.618141 
	C67.068718,112.013870 67.069717,112.013474 70.670860,121.059212 
	C70.854317,121.520035 70.974670,122.006050 71.159462,122.466255 
	C73.751060,128.920258 73.971130,129.068771 80.551018,126.209953 
	C92.217499,121.141129 90.868355,123.159859 86.352264,112.028442 
	C83.654655,105.379295 83.612228,105.396507 76.031570,108.618141 
M104.110992,26.658190 
	C105.634796,30.506617 107.023109,34.418125 108.767021,38.164082 
	C109.273972,39.253021 111.113640,40.788418 111.804054,40.551353 
	C116.182518,39.047924 121.366692,38.078457 124.442070,35.056950 
	C128.184067,31.380505 122.970734,27.413412 121.907890,23.551216 
	C121.428146,21.807907 118.567047,19.041298 117.761169,19.342978 
	C113.070358,21.098955 108.669174,23.628618 104.110992,26.658190 
z"/>
<path fill="#E0AB0B" opacity="1.000000" stroke="none" 
	d="
M1.000000,33.416664 
	C8.959156,29.665127 16.958040,26.420918 24.861048,22.957905 
	C28.936853,21.171932 31.424881,22.133865 33.050297,26.306698 
	C35.582294,32.806931 38.330730,39.223713 41.040695,45.653412 
	C42.409969,48.902172 42.140896,51.502541 38.516136,52.986721 
	C31.595745,55.820324 24.655699,58.606976 17.759993,61.499378 
	C14.300053,62.950649 12.196178,62.068501 10.721626,58.519024 
	C7.877032,51.671650 4.731387,44.949337 1.355280,38.087585 
	C1.000000,36.611111 1.000000,35.222221 1.000000,33.416664 
z"/>
<path fill="#0B365E" opacity="1.000000" stroke="none" 
	d="
M168.991592,22.787704 
	C168.991592,22.787704 168.701660,23.093086 168.170700,23.082813 
	C167.098099,23.353764 166.556473,23.634987 166.014832,23.916210 
	C140.267548,41.979160 122.512383,65.875473 113.628899,96.134674 
	C108.098068,114.973938 106.962273,134.127914 110.802795,153.425491 
	C112.513313,162.020325 114.830757,170.494370 116.570427,179.171677 
	C106.946732,165.222260 101.796608,149.384384 100.281593,132.614502 
	C96.870514,94.856934 109.310883,62.927986 138.021545,37.112312 
	C139.798523,35.864628 140.909424,34.734634 142.020325,33.604637 
	C142.122101,33.440460 142.223862,33.276283 142.915527,33.023907 
	C144.006241,32.381035 144.507034,31.826355 145.007843,31.271679 
	C145.007843,31.271679 145.259155,30.923824 145.858154,30.931801 
	C147.630264,29.945574 148.803391,28.951370 149.976517,27.957169 
	C149.976517,27.957169 149.991379,28.005630 150.289825,27.970968 
	C151.003311,27.528362 151.418365,27.120419 151.833405,26.712475 
	C151.833405,26.712473 151.856018,26.842009 152.061401,26.793022 
	C152.509445,26.493832 152.752121,26.243631 152.994797,25.993429 
	C152.994797,25.993429 153.000000,26.000000 153.356415,26.000076 
	C154.764618,25.251335 155.816437,24.502516 156.868240,23.753696 
	C156.868240,23.753696 156.881866,23.858057 157.210419,23.890516 
	C158.623856,23.170012 159.708725,22.417046 160.793594,21.664082 
	C160.793594,21.664080 160.841644,21.785583 161.178177,21.834721 
	C164.007004,21.258717 166.499298,20.633575 168.995544,20.355824 
	C168.996857,21.398043 168.994217,22.092873 168.991592,22.787704 
z"/>
<path fill="#E0AB0E" opacity="1.000000" stroke="none" 
	d="
M39.307327,85.775032 
	C38.427654,83.571075 37.688709,81.725082 36.949894,79.879036 
	C34.149426,72.881653 34.152664,72.889442 41.363907,69.904816 
	C44.887486,68.446449 48.418022,67.001625 51.905857,65.461128 
	C55.254963,63.981899 57.571419,64.578911 58.964050,68.247200 
	C60.609509,72.581459 62.455006,76.843155 64.320152,81.089584 
	C65.872467,84.623810 65.305298,87.046013 61.370556,88.467514 
	C57.322502,89.929947 53.409725,91.763046 49.414223,93.375641 
	C43.753704,95.660248 43.337044,95.455910 41.043564,89.776344 
	C40.547344,88.547508 39.981750,87.346695 39.307327,85.775032 
z"/>
<path fill="#E0AB0D" opacity="1.000000" stroke="none" 
	d="
M71.009880,21.014133 
	C72.300713,21.023098 73.591545,21.032059 75.336960,21.461517 
	C76.429649,23.055634 77.067749,24.229258 77.705856,25.402882 
	C77.705856,25.402882 77.757835,25.743860 77.867905,26.227581 
	C78.657410,28.128059 79.336845,29.544815 80.016281,30.961571 
	C80.016281,30.961569 79.992661,30.992504 80.005432,31.353378 
	C81.011864,33.810421 82.005531,35.906590 82.999199,38.002758 
	C82.999199,38.002758 83.052841,38.490116 83.102081,39.103359 
	C83.052513,40.769676 82.953705,41.822746 82.854904,42.875820 
	C82.854904,42.875820 82.990295,42.986763 82.611214,42.978142 
	C81.132797,43.632954 80.033463,44.296394 78.934128,44.959831 
	C78.934128,44.959831 78.470757,44.997353 77.897247,45.080688 
	C72.549515,47.101006 67.775291,49.037983 63.001060,50.974964 
	C62.507793,50.736263 62.014526,50.497562 61.247482,49.754532 
	C59.653683,46.492805 58.333664,43.735409 57.013649,40.978012 
	C57.013649,40.978012 56.953209,40.500828 56.873573,39.929581 
	C55.839043,37.277546 54.884148,35.196766 53.929253,33.115982 
	C53.929253,33.115982 53.982548,33.052563 53.977612,32.758606 
	C53.685600,31.972351 53.398525,31.480053 53.111450,30.987755 
	C53.111450,30.987755 53.172874,30.573021 53.386086,30.185038 
	C53.843597,29.254467 54.087898,28.711880 54.332199,28.169292 
	C54.332199,28.169292 54.681553,28.047745 55.133244,27.928864 
	C56.523911,27.300411 57.462883,26.790844 58.401859,26.281277 
	C58.401859,26.281277 58.743137,26.247532 59.254444,26.157066 
	C63.513794,24.382444 67.261833,22.698290 71.009880,21.014133 
z"/>
<path fill="#DEAC14" opacity="1.000000" stroke="none" 
	d="
M76.372948,108.447601 
	C83.612228,105.396507 83.654655,105.379295 86.352264,112.028442 
	C90.868355,123.159859 92.217499,121.141129 80.551018,126.209953 
	C73.971130,129.068771 73.751060,128.920258 71.159462,122.466255 
	C70.974670,122.006050 70.854317,121.520035 70.670860,121.059212 
	C67.069717,112.013474 67.068718,112.013870 76.372948,108.447601 
z"/>
<path fill="#DFAC14" opacity="1.000000" stroke="none" 
	d="
M104.140556,26.277508 
	C108.669174,23.628618 113.070358,21.098955 117.761169,19.342978 
	C118.567047,19.041298 121.428146,21.807907 121.907890,23.551216 
	C122.970734,27.413412 128.184067,31.380505 124.442070,35.056950 
	C121.366692,38.078457 116.182518,39.047924 111.804054,40.551353 
	C111.113640,40.788418 109.273972,39.253021 108.767021,38.164082 
	C107.023109,34.418125 105.634796,30.506617 104.140556,26.277508 
z"/>
<path fill="#153A5A" opacity="1.000000" stroke="none" 
	d="
M169.330734,22.722630 
	C168.994217,22.092873 168.996857,21.398043 169.000183,20.351145 
	C169.000885,19.999079 169.008621,19.991335 169.379791,19.991302 
	C170.835388,18.700581 171.919830,17.409893 173.004272,16.119209 
	C177.467896,14.866445 181.931519,13.613677 186.395126,12.360910 
	C186.490295,12.726944 186.585464,13.092978 186.680634,13.459011 
	C181.010376,16.525192 175.340134,19.591373 169.330734,22.722630 
z"/>
<path fill="#FCF3C4" opacity="1.000000" stroke="none" 
	d="
M63.242683,51.253822 
	C67.775291,49.037983 72.549515,47.101006 77.690498,45.186909 
	C73.776550,48.647160 69.381660,51.821350 63.242683,51.253822 
z"/>
<path fill="#FCF3C4" opacity="1.000000" stroke="none" 
	d="
M70.806839,20.757509 
	C67.261833,22.698290 63.513794,24.382444 59.389168,26.050989 
	C62.876328,24.190548 66.740059,22.345716 70.806839,20.757509 
z"/>
<path fill="#FCF3C4" opacity="1.000000" stroke="none" 
	d="
M56.981827,41.383442 
	C58.333664,43.735409 59.653683,46.492805 61.014313,49.609783 
	C56.479328,48.851933 58.095440,44.627541 56.981827,41.383442 
z"/>
<path fill="#153A5A" opacity="1.000000" stroke="none" 
	d="
M168.996246,20.003757 
	C166.499298,20.633575 164.007004,21.258717 161.119354,21.806299 
	C163.230194,20.477926 165.736404,19.227112 168.615417,18.310148 
	C168.995026,19.093111 169.001816,19.542223 169.008621,19.991335 
	C169.008621,19.991335 169.000885,19.999079 168.996246,20.003757 
z"/>
<path fill="#0B365E" opacity="1.000000" stroke="none" 
	d="
M169.379791,19.991302 
	C169.001816,19.542223 168.995026,19.093111 168.980560,18.307232 
	C170.098602,17.345823 171.224289,16.721178 172.677124,16.107868 
	C171.919830,17.409893 170.835388,18.700581 169.379791,19.991302 
z"/>
<path fill="#FCF3C4" opacity="1.000000" stroke="none" 
	d="
M83.030930,37.610252 
	C82.005531,35.906590 81.011864,33.810421 80.024849,31.352955 
	C81.041885,33.067020 82.052277,35.142384 83.030930,37.610252 
z"/>
<path fill="#FCF3C4" opacity="1.000000" stroke="none" 
	d="
M53.912163,33.502487 
	C54.884148,35.196766 55.839043,37.277546 56.768631,39.713188 
	C55.793915,38.008358 54.844494,35.948673 53.912163,33.502487 
z"/>
<path fill="#153A5A" opacity="1.000000" stroke="none" 
	d="
M141.749542,33.709904 
	C140.909424,34.734634 139.798523,35.864628 138.334412,36.992863 
	C139.147034,35.932457 140.312881,34.873814 141.749542,33.709904 
z"/>
<path fill="#153A5A" opacity="1.000000" stroke="none" 
	d="
M149.649628,28.011127 
	C148.803391,28.951370 147.630264,29.945574 146.071289,30.907116 
	C146.897873,29.938002 148.110321,29.001547 149.649628,28.011127 
z"/>
<path fill="#FCF3C4" opacity="1.000000" stroke="none" 
	d="
M83.203873,42.871330 
	C82.953705,41.822746 83.052513,40.769676 83.211304,39.322830 
	C83.365135,40.241653 83.458984,41.554249 83.203873,42.871330 
z"/>
<path fill="#FCF3C4" opacity="1.000000" stroke="none" 
	d="
M80.039185,30.569576 
	C79.336845,29.544815 78.657410,28.128059 77.976242,26.361769 
	C78.670364,27.400684 79.366226,28.789133 80.039185,30.569576 
z"/>
<path fill="#FCF3C4" opacity="1.000000" stroke="none" 
	d="
M77.787720,24.985226 
	C77.067749,24.229258 76.429649,23.055634 75.716507,21.553528 
	C76.384178,22.339220 77.126877,23.453394 77.787720,24.985226 
z"/>
<path fill="#153A5A" opacity="1.000000" stroke="none" 
	d="
M156.544403,23.809540 
	C155.816437,24.502516 154.764618,25.251335 153.353256,25.997063 
	C154.069321,25.284441 155.144943,24.574913 156.544403,23.809540 
z"/>
<path fill="#153A5A" opacity="1.000000" stroke="none" 
	d="
M160.463440,21.715427 
	C159.708725,22.417046 158.623856,23.170012 157.162384,23.869062 
	C157.901596,23.132357 159.017426,22.449564 160.463440,21.715427 
z"/>
<path fill="#FCF3C4" opacity="1.000000" stroke="none" 
	d="
M79.318741,45.005722 
	C80.033463,44.296394 81.132797,43.632954 82.552826,42.912933 
	C81.816795,43.588100 80.760071,44.319859 79.318741,45.005722 
z"/>
<path fill="#FCF3C4" opacity="1.000000" stroke="none" 
	d="
M58.035210,26.192207 
	C57.462883,26.790844 56.523911,27.300411 55.261257,27.795376 
	C55.847908,27.221560 56.758236,26.662348 58.035210,26.192207 
z"/>
<path fill="#FCF3C4" opacity="1.000000" stroke="none" 
	d="
M52.872635,31.138199 
	C53.398525,31.480053 53.685600,31.972351 53.936249,32.756428 
	C53.477825,32.461685 53.055820,31.875162 52.872635,31.138199 
z"/>
<path fill="#153A5A" opacity="1.000000" stroke="none" 
	d="
M144.737579,31.350357 
	C144.507034,31.826355 144.006241,32.381035 143.194733,32.946518 
	C143.411789,32.447895 143.939545,31.938465 144.737579,31.350357 
z"/>
<path fill="#153A5A" opacity="1.000000" stroke="none" 
	d="
M166.340302,23.962116 
	C166.556473,23.634987 167.098099,23.353764 167.960358,23.092316 
	C167.742569,23.410734 167.204178,23.709379 166.340302,23.962116 
z"/>
<path fill="#FCF3C4" opacity="1.000000" stroke="none" 
	d="
M54.004002,28.252983 
	C54.087898,28.711880 53.843597,29.254467 53.358215,29.977272 
	C53.303356,29.550550 53.489578,28.943613 54.004002,28.252983 
z"/>
<path fill="#153A5A" opacity="1.000000" stroke="none" 
	d="
M151.541687,26.771038 
	C151.418365,27.120419 151.003311,27.528362 150.270691,27.954163 
	C150.385406,27.591215 150.817688,27.210409 151.541687,26.771038 
z"/>
<path fill="#153A5A" opacity="1.000000" stroke="none" 
	d="
M152.723419,26.016596 
	C152.752121,26.243631 152.509445,26.493832 151.999329,26.771355 
	C151.971939,26.545706 152.212006,26.292734 152.723419,26.016596 
z"/>
</svg>